<?xml version="1.0" encoding="UTF-8"?>
<svg id="Laag_1" data-name="Laag 1" xmlns="http://www.w3.org/2000/svg" viewBox="0 0 540.34 644.34">
  <defs>
    <style>
      .cls-1 {
        fill: #5560a9;
      }
    </style>
  </defs>
  <path class="cls-1" d="m112.11,342.58c-30.47,0-53.97-8.5-70.51-25.49-16.54-16.99-24.8-40.79-24.8-71.39h40.62c0,19.53,4.85,34.7,14.55,45.51,9.7,10.81,23.4,16.21,41.11,16.21s30.44-5.37,39.75-16.11c9.31-10.74,13.96-25.94,13.96-45.6V61.33h40.62v184.38c0,30.73-8.4,54.56-25.2,71.48-16.8,16.93-40.17,25.39-70.12,25.39Zm-16.41-244.14v-37.11h91.02v37.11h-91.02Z"/>
  <path class="cls-1" d="m304.75,444.76c-15.7-1.37-30.28-3.92-43.74-7.65-13.47-3.73-25.81-8.63-37.04-14.71l8.5-38.86c13.73,7.35,27.11,13.19,40.13,17.53,13.02,4.34,25.82,7.06,38.4,8.16,18.16,1.59,31.93-.41,41.3-5.99,9.38-5.58,14.63-14.86,15.77-27.83,1.44-16.47-5.94-29.27-22.13-38.4l-45.96-25.98c-18.06-10.21-31.59-21.78-40.58-34.72-9-12.94-12.71-28.36-11.15-46.26,2.11-24.13,11.01-42.17,26.7-54.13,15.68-11.96,36.82-16.78,63.41-14.45,18.55,1.62,34.72,5.78,48.51,12.48,13.79,6.7,26.76,16.79,38.92,30.26l-29.66,25.25c-10.6-10.34-20.67-18.05-30.23-23.13-9.55-5.08-19.71-8.1-30.48-9.04-13.36-1.17-23.99,1.14-31.88,6.92-7.89,5.78-12.39,14.96-13.49,27.54-.78,8.95.98,16.46,5.28,22.52,4.3,6.06,10.94,11.71,19.89,16.93l38.8,22.61c19.65,11.39,34.27,23.58,43.85,36.58,9.58,12.99,13.54,28.96,11.89,47.9-2.19,25.04-11.97,43.1-29.35,54.19-17.38,11.1-42.6,15.19-75.68,12.3Z"/>
</svg>